<?xml version="1.0" encoding="UTF-8" standalone="no"?>
<!-- Created with Inkscape (http://www.inkscape.org/) -->

<svg
   xmlns:dc="http://purl.org/dc/elements/1.1/"
   xmlns:cc="http://creativecommons.org/ns#"
   xmlns:rdf="http://www.w3.org/1999/02/22-rdf-syntax-ns#"
   xmlns:svg="http://www.w3.org/2000/svg"
   xmlns="http://www.w3.org/2000/svg"
   version="1.1"
   width="48"
   height="48"
   id="svg44143">
  <defs
     id="defs44145" />
  <metadata
     id="metadata44148">
    <rdf:RDF>
      <cc:Work
         rdf:about="">
        <dc:format>image/svg+xml</dc:format>
        <dc:type
           rdf:resource="http://purl.org/dc/dcmitype/StillImage" />
        <dc:title></dc:title>
      </cc:Work>
    </rdf:RDF>
  </metadata>
  <g
     transform="translate(0,-1004.3622)"
     id="layer1">
    <g
       id="g44953">
      <path
         d="m 12.061711,1004.485 c -3.6109927,2.2412 -6.6716229,5.495 -8.7715197,9.3623 -6.6484733,12.2438 -2.78450562,28.1223 8.6288067,35.2548 11.413313,7.1324 26.214398,2.9871 32.862907,-9.2569 6.648472,-12.2441 2.784504,-28.1226 -8.628808,-35.2551 -0.338182,-0.24 -1.340527,2.0387 -1.924768,3.1115 -0.579908,1.0646 -1.760959,2.9815 -1.563474,3.2898 8.212152,5.1316 10.934066,16.3016 6.150305,25.1116 -4.783727,8.81 -15.195734,11.7299 -23.407921,6.5982 -8.1769133,-5.1099 -10.9409547,-16.2211 -6.242102,-25.0136 l 0.091869,-0.099 c 1.499991,-2.7625 3.662685,-5.0952 6.242102,-6.6964 0,0 -0.93927,-1.9906 -1.762081,-3.4512 -0.511924,-1.0812 -1.483275,-2.6802 -1.675316,-2.956 z"
         id="path3869-2"
         style="font-size:medium;font-style:normal;font-variant:normal;font-weight:normal;font-stretch:normal;text-indent:0;text-align:start;text-decoration:none;line-height:normal;letter-spacing:normal;word-spacing:normal;text-transform:none;direction:ltr;block-progression:tb;writing-mode:lr-tb;text-anchor:start;baseline-shift:baseline;color:#000000;fill:#ec6f3f;fill-opacity:1;stroke:none;stroke-width:2.33326507;marker:none;visibility:visible;display:inline;overflow:visible;enable-background:accumulate;font-family:Sans;-inkscape-font-specification:Sans" />
      <rect
         width="7.5815058"
         height="17.300461"
         rx="7.658505"
         ry="0"
         x="20.310575"
         y="1004.4812"
         id="rect44926"
         style="fill:#ec6f3f;fill-opacity:1;stroke:none" />
    </g>
  </g>
</svg>
